# xmcd
#
# Track frame offsets:
#	150
#	12654
#	24052
#	39612
#	51976
#	67352
#	87356
#	99973
#	117019
#
# Disc length: 1718 seconds
#
# Revision: 1
# Processed by: cddbd v1.5.1PL0 Copyright (c) Steve Scherf et al.
# Submitted via: audiograbber 1.81.03
#
DISCID=7106b409
DTITLE=Clampitt, Gaddis, and Buck - Nine Tracks
DYEAR=2004
DGENRE=Old Time
TTITLE0=Long Train
TTITLE1=Homeward Track
TTITLE2=Fallin'
TTITLE3=Midnight Train
TTITLE4=Judgement Day
TTITLE5=High Lonesome Sound
TTITLE6=Buck and Pole
TTITLE7=In the Pines
TTITLE8=Don't Laugh
EXTD=
EXTT0=
EXTT1=
EXTT2=
EXTT3=
EXTT4=
EXTT5=
EXTT6=
EXTT7=
EXTT8=
PLAYORDER=
